<?xml version="1.0" encoding="utf-8" standalone="no"?>
<!DOCTYPE svg PUBLIC "-//W3C//DTD SVG 1.1//EN"
  "http://www.w3.org/Graphics/SVG/1.1/DTD/svg11.dtd">
<svg xmlns:xlink="http://www.w3.org/1999/xlink" width="209.7pt" height="75.384pt" viewBox="0 0 209.7 75.384" xmlns="http://www.w3.org/2000/svg" version="1.1">
 <metadata>
  <rdf:RDF xmlns:dc="http://purl.org/dc/elements/1.1/" xmlns:cc="http://creativecommons.org/ns#" xmlns:rdf="http://www.w3.org/1999/02/22-rdf-syntax-ns#">
   <cc:Work>
    <dc:type rdf:resource="http://purl.org/dc/dcmitype/StillImage"/>
    <dc:date>2022-03-30T17:25:32.476826</dc:date>
    <dc:format>image/svg+xml</dc:format>
    <dc:creator>
     <cc:Agent>
      <dc:title>Matplotlib v3.5.1, https://matplotlib.org/</dc:title>
     </cc:Agent>
    </dc:creator>
   </cc:Work>
  </rdf:RDF>
 </metadata>
 <defs>
  <style type="text/css">*{stroke-linejoin: round; stroke-linecap: butt}</style>
 </defs>
 <g id="figure_1">
  <g id="patch_1">
   <path d="M 0 75.384 
L 209.7 75.384 
L 209.7 0 
L 0 0 
L 0 75.384 
z
" style="fill: none"/>
  </g>
  <g id="axes_1">
   <g id="line2d_1">
    <path d="M 16.077273 11.885975 
L 47.044503 11.885975 
" clip-path="url(#p367fff45ba)" style="fill: none; stroke: #000000; stroke-opacity: 0.6; stroke-width: 3; stroke-linecap: square"/>
   </g>
   <g id="line2d_2">
    <path d="M 16.077273 22.208385 
L 57.366913 22.208385 
" clip-path="url(#p367fff45ba)" style="fill: none; stroke: #000000; stroke-opacity: 0.6; stroke-width: 3; stroke-linecap: square"/>
   </g>
   <g id="line2d_3">
    <path d="M 16.077273 32.530795 
L 57.366913 32.530795 
" clip-path="url(#p367fff45ba)" style="fill: none; stroke: #000000; stroke-opacity: 0.6; stroke-width: 3; stroke-linecap: square"/>
   </g>
   <g id="line2d_4">
    <path d="M 16.077273 42.853205 
L 47.044503 42.853205 
" clip-path="url(#p367fff45ba)" style="fill: none; stroke: #000000; stroke-opacity: 0.6; stroke-width: 3; stroke-linecap: square"/>
   </g>
   <g id="line2d_5">
    <path d="M 16.077273 53.175615 
L 26.399683 53.175615 
" clip-path="url(#p367fff45ba)" style="fill: none; stroke: #000000; stroke-opacity: 0.6; stroke-width: 3; stroke-linecap: square"/>
   </g>
   <g id="line2d_6">
    <path d="M 16.077273 63.498025 
L 26.399683 63.498025 
" clip-path="url(#p367fff45ba)" style="fill: none; stroke: #000000; stroke-opacity: 0.6; stroke-width: 3; stroke-linecap: square"/>
   </g>
   <g id="line2d_7">
    <path d="M 95.353383 11.885975 
L 107.740275 11.885975 
" clip-path="url(#p367fff45ba)" style="fill: none; stroke: #000000; stroke-opacity: 0.6; stroke-width: 3; stroke-linecap: square"/>
   </g>
   <g id="line2d_8">
    <path d="M 82.96649 22.208385 
L 120.127167 22.208385 
" clip-path="url(#p367fff45ba)" style="fill: none; stroke: #000000; stroke-opacity: 0.6; stroke-width: 3; stroke-linecap: square"/>
   </g>
   <g id="line2d_9">
    <path d="M 76.773044 32.530795 
L 126.320613 32.530795 
" clip-path="url(#p367fff45ba)" style="fill: none; stroke: #000000; stroke-opacity: 0.6; stroke-width: 3; stroke-linecap: square"/>
   </g>
   <g id="line2d_10">
    <path d="M 76.773044 42.853205 
L 126.320613 42.853205 
" clip-path="url(#p367fff45ba)" style="fill: none; stroke: #000000; stroke-opacity: 0.6; stroke-width: 3; stroke-linecap: square"/>
   </g>
   <g id="line2d_11">
    <path d="M 82.96649 53.175615 
L 120.127167 53.175615 
" clip-path="url(#p367fff45ba)" style="fill: none; stroke: #000000; stroke-opacity: 0.6; stroke-width: 3; stroke-linecap: square"/>
   </g>
   <g id="line2d_12">
    <path d="M 95.353383 63.498025 
L 107.740275 63.498025 
" clip-path="url(#p367fff45ba)" style="fill: none; stroke: #000000; stroke-opacity: 0.6; stroke-width: 3; stroke-linecap: square"/>
   </g>
   <g id="line2d_13">
    <path d="M 142.010677 11.885975 
L 193.622727 11.885975 
" clip-path="url(#p367fff45ba)" style="fill: none; stroke: #000000; stroke-opacity: 0.6; stroke-width: 3; stroke-linecap: square"/>
   </g>
   <g id="line2d_14">
    <path d="M 142.010677 22.208385 
L 193.622727 22.208385 
" clip-path="url(#p367fff45ba)" style="fill: none; stroke: #000000; stroke-opacity: 0.6; stroke-width: 3; stroke-linecap: square"/>
   </g>
   <g id="line2d_15">
    <path d="M 162.655497 32.530795 
L 172.977907 32.530795 
" clip-path="url(#p367fff45ba)" style="fill: none; stroke: #000000; stroke-opacity: 0.6; stroke-width: 3; stroke-linecap: square"/>
   </g>
   <g id="line2d_16">
    <path d="M 162.655497 42.853205 
L 172.977907 42.853205 
" clip-path="url(#p367fff45ba)" style="fill: none; stroke: #000000; stroke-opacity: 0.6; stroke-width: 3; stroke-linecap: square"/>
   </g>
   <g id="line2d_17">
    <path d="M 162.655497 53.175615 
L 172.977907 53.175615 
" clip-path="url(#p367fff45ba)" style="fill: none; stroke: #000000; stroke-opacity: 0.6; stroke-width: 3; stroke-linecap: square"/>
   </g>
   <g id="line2d_18">
    <path d="M 162.655497 63.498025 
L 172.977907 63.498025 
" clip-path="url(#p367fff45ba)" style="fill: none; stroke: #000000; stroke-opacity: 0.6; stroke-width: 3; stroke-linecap: square"/>
   </g>
   <g id="line2d_19">
    <defs>
     <path id="m5ead2df136" d="M 0 3 
C 0.795609 3 1.55874 2.683901 2.12132 2.12132 
C 2.683901 1.55874 3 0.795609 3 0 
C 3 -0.795609 2.683901 -1.55874 2.12132 -2.12132 
C 1.55874 -2.683901 0.795609 -3 0 -3 
C -0.795609 -3 -1.55874 -2.683901 -2.12132 -2.12132 
C -2.683901 -1.55874 -3 -0.795609 -3 0 
C -3 0.795609 -2.683901 1.55874 -2.12132 2.12132 
C -1.55874 2.683901 -0.795609 3 0 3 
z
" style="stroke: #000000"/>
    </defs>
    <g clip-path="url(#p367fff45ba)">
     <use xlink:href="#m5ead2df136" x="16.077273" y="11.885975" style="fill: #d62728; stroke: #000000"/>
     <use xlink:href="#m5ead2df136" x="16.077273" y="22.208385" style="fill: #d62728; stroke: #000000"/>
     <use xlink:href="#m5ead2df136" x="16.077273" y="32.530795" style="fill: #d62728; stroke: #000000"/>
     <use xlink:href="#m5ead2df136" x="16.077273" y="42.853205" style="fill: #d62728; stroke: #000000"/>
     <use xlink:href="#m5ead2df136" x="16.077273" y="53.175615" style="fill: #d62728; stroke: #000000"/>
     <use xlink:href="#m5ead2df136" x="16.077273" y="63.498025" style="fill: #d62728; stroke: #000000"/>
     <use xlink:href="#m5ead2df136" x="95.353383" y="11.885975" style="fill: #d62728; stroke: #000000"/>
     <use xlink:href="#m5ead2df136" x="82.96649" y="22.208385" style="fill: #d62728; stroke: #000000"/>
     <use xlink:href="#m5ead2df136" x="76.773044" y="32.530795" style="fill: #d62728; stroke: #000000"/>
     <use xlink:href="#m5ead2df136" x="76.773044" y="42.853205" style="fill: #d62728; stroke: #000000"/>
     <use xlink:href="#m5ead2df136" x="82.96649" y="53.175615" style="fill: #d62728; stroke: #000000"/>
     <use xlink:href="#m5ead2df136" x="95.353383" y="63.498025" style="fill: #d62728; stroke: #000000"/>
     <use xlink:href="#m5ead2df136" x="142.010677" y="11.885975" style="fill: #d62728; stroke: #000000"/>
     <use xlink:href="#m5ead2df136" x="142.010677" y="22.208385" style="fill: #d62728; stroke: #000000"/>
     <use xlink:href="#m5ead2df136" x="162.655497" y="32.530795" style="fill: #d62728; stroke: #000000"/>
     <use xlink:href="#m5ead2df136" x="162.655497" y="42.853205" style="fill: #d62728; stroke: #000000"/>
     <use xlink:href="#m5ead2df136" x="162.655497" y="53.175615" style="fill: #d62728; stroke: #000000"/>
     <use xlink:href="#m5ead2df136" x="162.655497" y="63.498025" style="fill: #d62728; stroke: #000000"/>
    </g>
   </g>
   <g id="line2d_20">
    <defs>
     <path id="m39fe4d1791" d="M 0 3 
C 0.795609 3 1.55874 2.683901 2.12132 2.12132 
C 2.683901 1.55874 3 0.795609 3 0 
C 3 -0.795609 2.683901 -1.55874 2.12132 -2.12132 
C 1.55874 -2.683901 0.795609 -3 0 -3 
C -0.795609 -3 -1.55874 -2.683901 -2.12132 -2.12132 
C -2.683901 -1.55874 -3 -0.795609 -3 0 
C -3 0.795609 -2.683901 1.55874 -2.12132 2.12132 
C -1.55874 2.683901 -0.795609 3 0 3 
z
" style="stroke: #000000"/>
    </defs>
    <g clip-path="url(#p367fff45ba)">
     <use xlink:href="#m39fe4d1791" x="47.044503" y="11.885975" style="fill: #0000ff; stroke: #000000"/>
     <use xlink:href="#m39fe4d1791" x="57.366913" y="32.530795" style="fill: #0000ff; stroke: #000000"/>
     <use xlink:href="#m39fe4d1791" x="57.366913" y="22.208385" style="fill: #0000ff; stroke: #000000"/>
     <use xlink:href="#m39fe4d1791" x="47.044503" y="42.853205" style="fill: #0000ff; stroke: #000000"/>
     <use xlink:href="#m39fe4d1791" x="26.399683" y="53.175615" style="fill: #0000ff; stroke: #000000"/>
     <use xlink:href="#m39fe4d1791" x="26.399683" y="63.498025" style="fill: #0000ff; stroke: #000000"/>
     <use xlink:href="#m39fe4d1791" x="107.740275" y="11.885975" style="fill: #0000ff; stroke: #000000"/>
     <use xlink:href="#m39fe4d1791" x="120.127167" y="22.208385" style="fill: #0000ff; stroke: #000000"/>
     <use xlink:href="#m39fe4d1791" x="126.320613" y="32.530795" style="fill: #0000ff; stroke: #000000"/>
     <use xlink:href="#m39fe4d1791" x="126.320613" y="42.853205" style="fill: #0000ff; stroke: #000000"/>
     <use xlink:href="#m39fe4d1791" x="120.127167" y="53.175615" style="fill: #0000ff; stroke: #000000"/>
     <use xlink:href="#m39fe4d1791" x="107.740275" y="63.498025" style="fill: #0000ff; stroke: #000000"/>
     <use xlink:href="#m39fe4d1791" x="193.622727" y="11.885975" style="fill: #0000ff; stroke: #000000"/>
     <use xlink:href="#m39fe4d1791" x="193.622727" y="22.208385" style="fill: #0000ff; stroke: #000000"/>
     <use xlink:href="#m39fe4d1791" x="172.977907" y="32.530795" style="fill: #0000ff; stroke: #000000"/>
     <use xlink:href="#m39fe4d1791" x="172.977907" y="42.853205" style="fill: #0000ff; stroke: #000000"/>
     <use xlink:href="#m39fe4d1791" x="172.977907" y="53.175615" style="fill: #0000ff; stroke: #000000"/>
     <use xlink:href="#m39fe4d1791" x="172.977907" y="63.498025" style="fill: #0000ff; stroke: #000000"/>
    </g>
   </g>
  </g>
 </g>
 <defs>
  <clipPath id="p367fff45ba">
   <rect x="7.2" y="7.2" width="195.3" height="60.984"/>
  </clipPath>
 </defs>
</svg>
